
<svg fill="#62e7f8" version="1.0" xmlns="http://www.w3.org/2000/svg"
 width="1280.000000pt" height="1280.000000pt" viewBox="0 0 1280.000000 1280.000000"
 preserveAspectRatio="xMidYMid meet">
<metadata>
Created by potrace 1.16, written by Peter Selinger 2001-2019
</metadata>
<g transform="translate(0.000000,1280.000000) scale(0.100000,-0.100000)"
fill="#62e7f8" stroke="none">
<path d="M1704 10655 c-142 -31 -259 -95 -377 -205 -95 -89 -165 -185 -206
-284 -65 -157 -61 107 -61 -3766 0 -3873 -4 -3609 61 -3766 41 -98 110 -194
206 -284 85 -81 156 -128 253 -167 137 -55 52 -53 1955 -53 1903 0 1818 -2
1955 53 231 94 430 319 491 555 19 74 19 150 19 3662 0 3511 0 3588 -19 3662
-65 255 -286 487 -546 576 l-80 27 -1795 2 c-1470 1 -1806 -1 -1856 -12z
m3496 -4255 l0 -3460 -1665 0 -1665 0 0 3460 0 3460 1665 0 1665 0 0 -3460z"/>
<path d="M7435 10655 c-286 -63 -543 -310 -616 -593 -19 -74 -19 -151 -19
-3662 0 -3512 0 -3588 19 -3662 65 -255 285 -487 546 -576 l80 -27 1820 0
1820 0 80 27 c120 42 218 101 307 186 97 93 166 188 207 286 65 157 61 -107
61 3766 0 3873 4 3609 -61 3766 -41 98 -110 194 -206 284 -117 111 -235 175
-381 205 -96 21 -3565 21 -3657 0z m3495 -4255 l0 -3460 -1665 0 -1665 0 0
3460 0 3460 1665 0 1665 0 0 -3460z"/>
</g>
</svg>
